<svg id="Illustration" xmlns="http://www.w3.org/2000/svg" width="1781.14" height="1830" viewBox="0 0 1781.14 1830"><defs><style>.cls-1,.cls-3{fill:#1360bc;}.cls-2{fill:#fff;}.cls-3{stroke:#000;stroke-miterlimit:10;stroke-width:5px;}</style></defs><g id="Drop-shipper_receives_order" data-name="Drop-shipper receives order"><path class="cls-1" d="M1149.67,561.13l-17.9-10.57a8.6,8.6,0,0,1-4.25-8.21c.34-3.5.54-7,.58-10.47a8.63,8.63,0,0,1,5.1-7.69l18.9-8.59a8.65,8.65,0,0,0,4.91-9.68l-3.46-16.17a8.75,8.75,0,0,0-8.45-6.89l-20.85-.28a8.76,8.76,0,0,1-7.83-5.05c-1.45-3.14-3-6.22-4.74-9.24a8.58,8.58,0,0,1,.5-9.23l12-16.85a8.62,8.62,0,0,0-.63-10.83l-11.15-12.29a8.83,8.83,0,0,0-10.8-1.78l-18.14,10.06a8.83,8.83,0,0,1-9.32-.49q-4.26-3-8.8-5.65a8.65,8.65,0,0,1-4.24-8.26l1.93-20.55a8.69,8.69,0,0,0-6-9.07l-15.85-5.13A8.78,8.78,0,0,0,1031,382l-10.65,17.72a8.71,8.71,0,0,1-8.28,4.21c-3.53-.35-7.06-.54-10.57-.59a8.72,8.72,0,0,1-7.76-5.06L985,379.57a8.8,8.8,0,0,0-9.78-4.88L959,378.1a8.69,8.69,0,0,0-6.94,8.38l-.27,20.65a8.59,8.59,0,0,1-5,7.74q-4.82,2.17-9.42,4.74a8.77,8.77,0,0,1-9.28-.54l-17-12a8.82,8.82,0,0,0-10.92.62l-12.39,11a8.63,8.63,0,0,0-1.79,10.7l10.17,18a8.57,8.57,0,0,1-.48,9.23q-3,4.21-5.69,8.71a8.77,8.77,0,0,1-8.34,4.2l-20.73-1.94a8.76,8.76,0,0,0-9.15,5.95l-5.16,15.7a8.68,8.68,0,0,0,3.86,10.16L868.27,510a8.6,8.6,0,0,1,4.25,8.22q-.51,5.25-.58,10.47a8.61,8.61,0,0,1-5.1,7.69L848,545a8.66,8.66,0,0,0-4.92,9.69l3.46,16.16a8.74,8.74,0,0,0,8.46,6.89l20.84.29a8.72,8.72,0,0,1,7.82,5c1.46,3.17,3.06,6.29,4.79,9.33a8.57,8.57,0,0,1-.54,9.2l-12.05,16.84a8.64,8.64,0,0,0,.64,10.83l11.15,12.29a8.82,8.82,0,0,0,10.79,1.78l18.15-10.06a8.77,8.77,0,0,1,9.31.49q4.26,3,8.8,5.65a8.62,8.62,0,0,1,4.24,8.26L937,668.18a8.7,8.7,0,0,0,6,9.07l15.85,5.13a8.79,8.79,0,0,0,10.24-3.81l10.64-17.72a8.73,8.73,0,0,1,8.29-4.21q5.29.51,10.57.59a8.72,8.72,0,0,1,7.76,5.06L1015,681a8.8,8.8,0,0,0,9.78,4.88l16.31-3.41a8.7,8.7,0,0,0,6.94-8.38l.27-20.66a8.62,8.62,0,0,1,5.08-7.75q4.75-2.16,9.32-4.69a8.79,8.79,0,0,1,9.32.5l17,12a8.82,8.82,0,0,0,10.92-.62l12.4-11a8.62,8.62,0,0,0,1.78-10.69l-10.16-18a8.59,8.59,0,0,1,.47-9.23q3-4.21,5.7-8.71a8.76,8.76,0,0,1,8.33-4.2l20.74,1.94a8.75,8.75,0,0,0,9.14-6l5.16-15.71A8.65,8.65,0,0,0,1149.67,561.13Zm-153.75,40c-39.47-2.29-69.63-35.85-67.36-75s36.1-69,75.57-66.67,69.63,35.85,67.36,75S1035.38,603.41,995.92,601.12Z" transform="translate(-366.41 -335)"/><path class="cls-1" d="M1022.94,688.3A10.91,10.91,0,0,1,1013,682l-8.68-18.73a6.53,6.53,0,0,0-5.79-3.79c-3.56,0-7.18-.25-10.76-.6A6.55,6.55,0,0,0,981.6,662L971,679.71a10.92,10.92,0,0,1-12.81,4.76l-15.85-5.13A10.83,10.83,0,0,1,934.77,668l1.93-20.56a6.47,6.47,0,0,0-3.16-6.15c-3.08-1.81-6.09-3.74-8.95-5.75a6.61,6.61,0,0,0-7-.36l-18.15,10.06A11,11,0,0,1,886,643L874.82,630.7a10.76,10.76,0,0,1-.8-13.59l12.05-16.84a6.38,6.38,0,0,0,.41-6.83c-1.73-3.06-3.37-6.26-4.87-9.5a6.56,6.56,0,0,0-5.85-3.72l-20.84-.28a10.91,10.91,0,0,1-10.58-8.63l-3.46-16.17A10.79,10.79,0,0,1,847,543l18.9-8.59a6.43,6.43,0,0,0,3.81-5.71c0-3.52.25-7.11.59-10.66a6.42,6.42,0,0,0-3.18-6.1l-17.89-10.57a10.8,10.8,0,0,1-4.83-12.73l5.16-15.71A10.92,10.92,0,0,1,861,465.47l20.74,1.93a6.57,6.57,0,0,0,6.24-3.13c1.8-3,3.75-6,5.79-8.86a6.44,6.44,0,0,0,.35-6.87l-10.17-18a10.79,10.79,0,0,1,2.24-13.43l12.4-11a11,11,0,0,1,13.65-.77l17,12a6.57,6.57,0,0,0,6.94.41c3.09-1.71,6.31-3.33,9.58-4.82a6.43,6.43,0,0,0,3.74-5.76l.27-20.65A10.82,10.82,0,0,1,958.5,376l16.31-3.41A10.92,10.92,0,0,1,987,378.65l8.69,18.73a6.53,6.53,0,0,0,5.79,3.79c3.56.05,7.18.25,10.75.59a6.54,6.54,0,0,0,6.19-3.14l10.64-17.73a11,11,0,0,1,12.81-4.77l15.85,5.13a10.86,10.86,0,0,1,7.53,11.37l-1.93,20.55a6.44,6.44,0,0,0,3.16,6.16c3.08,1.81,6.09,3.74,9,5.75a6.61,6.61,0,0,0,7,.36l18.15-10.06a11,11,0,0,1,13.49,2.23l11.15,12.29a10.76,10.76,0,0,1,.79,13.59l-12,16.85a6.42,6.42,0,0,0-.38,6.87c1.73,3.06,3.36,6.22,4.83,9.4a6.56,6.56,0,0,0,5.86,3.76l20.85.29a10.91,10.91,0,0,1,10.58,8.64l3.46,16.16a10.8,10.8,0,0,1-6.16,12.15l-18.9,8.59a6.43,6.43,0,0,0-3.81,5.71c0,3.52-.24,7.11-.59,10.66a6.44,6.44,0,0,0,3.18,6.1l17.9,10.57a10.8,10.8,0,0,1,4.83,12.73l-5.16,15.71a10.91,10.91,0,0,1-11.44,7.45l-20.74-1.93a6.55,6.55,0,0,0-6.24,3.13c-1.83,3-3.77,6-5.79,8.86a6.42,6.42,0,0,0-.36,6.87l10.17,18a10.77,10.77,0,0,1-2.24,13.43l-12.39,11a11,11,0,0,1-13.66.77l-17-12a6.62,6.62,0,0,0-7-.39c-3.1,1.72-6.29,3.32-9.48,4.77a6.47,6.47,0,0,0-3.79,5.78l-.27,20.66a10.83,10.83,0,0,1-8.69,10.5l-16.31,3.41A11.3,11.3,0,0,1,1022.94,688.3Zm-35.76-33.9c.34,0,.69,0,1,.05,3.45.33,6.95.53,10.39.58a11,11,0,0,1,9.72,6.33L1017,680.1a6.56,6.56,0,0,0,7.33,3.65l16.3-3.41a6.46,6.46,0,0,0,5.2-6.25l.27-20.65a10.87,10.87,0,0,1,6.37-9.74c3.09-1.4,6.17-3,9.16-4.61a11.08,11.08,0,0,1,11.66.63l17,12a6.58,6.58,0,0,0,8.19-.47l12.39-11a6.39,6.39,0,0,0,1.34-8l-10.17-18a10.83,10.83,0,0,1,.6-11.59c1.95-2.73,3.83-5.61,5.6-8.56a11,11,0,0,1,10.43-5.26l20.73,1.93a6.48,6.48,0,0,0,6.85-4.44l5.16-15.7a6.41,6.41,0,0,0-2.88-7.57l-17.9-10.57a10.85,10.85,0,0,1-5.32-10.32c.33-3.43.53-6.89.57-10.29a10.86,10.86,0,0,1,6.39-9.66l18.9-8.59a6.41,6.41,0,0,0,3.67-7.22l-3.46-16.16a6.51,6.51,0,0,0-6.33-5.15l-20.85-.29a11,11,0,0,1-9.8-6.32c-1.42-3.07-3-6.13-4.66-9.08a10.83,10.83,0,0,1,.63-11.6l12-16.85a6.4,6.4,0,0,0-.47-8.07l-11.15-12.29a6.57,6.57,0,0,0-8.1-1.33l-18.15,10.05a11.06,11.06,0,0,1-11.64-.6c-2.76-1.94-5.67-3.81-8.65-5.56a10.89,10.89,0,0,1-5.32-10.37l1.93-20.55a6.45,6.45,0,0,0-4.5-6.77l-15.85-5.13a6.54,6.54,0,0,0-7.67,2.85l-10.65,17.73a10.89,10.89,0,0,1-10.38,5.26c-3.46-.34-7-.53-10.39-.58a10.94,10.94,0,0,1-9.73-6.34L983,380.5a6.53,6.53,0,0,0-7.33-3.65l-16.31,3.41a6.45,6.45,0,0,0-5.19,6.25l-.27,20.65a10.85,10.85,0,0,1-6.33,9.72c-3.15,1.43-6.27,3-9.25,4.65a11,11,0,0,1-11.61-.66l-17-12a6.59,6.59,0,0,0-8.19.46l-12.4,11a6.4,6.4,0,0,0-1.33,8l10.17,18a10.84,10.84,0,0,1-.61,11.6c-2,2.75-3.85,5.64-5.59,8.56a11,11,0,0,1-10.43,5.26l-20.74-1.94a6.46,6.46,0,0,0-6.84,4.45L848.62,490a6.41,6.41,0,0,0,2.88,7.57l17.9,10.57a10.84,10.84,0,0,1,5.32,10.32c-.34,3.42-.53,6.89-.57,10.29a10.87,10.87,0,0,1-6.39,9.66L848.86,547a6.41,6.41,0,0,0-3.67,7.22l3.45,16.16a6.52,6.52,0,0,0,6.34,5.15l20.84.29a11,11,0,0,1,9.79,6.27c1.44,3.14,3,6.22,4.7,9.18a10.79,10.79,0,0,1-.65,11.56L877.6,619.67a6.4,6.4,0,0,0,.48,8.07L889.23,640a6.55,6.55,0,0,0,8.09,1.33l18.15-10.05a11.08,11.08,0,0,1,11.65.6c2.76,1.94,5.67,3.81,8.65,5.56a10.89,10.89,0,0,1,5.32,10.37l-1.93,20.55a6.45,6.45,0,0,0,4.49,6.76l15.86,5.13a6.55,6.55,0,0,0,7.67-2.84l10.65-17.73A11,11,0,0,1,987.18,654.4Zm13-51q-2.16,0-4.35-.12C955.17,601,924,566.29,926.36,526s37.29-71.12,77.9-68.75,71.76,37,69.43,77.29C1071.43,573.39,1038.88,603.44,1000.14,603.44Zm-4.1-4.52c38.16,2.2,71-26.77,73.25-64.6s-27.09-70.43-65.28-72.64-71.06,26.76-73.25,64.6S957.85,596.7,996,598.92Z" transform="translate(-366.41 -335)"/><path class="cls-2" d="M817.84,664.25l-12.7-7.5a6.11,6.11,0,0,1-3-5.83q.36-3.72.41-7.43a6.11,6.11,0,0,1,3.62-5.45l13.4-6.09a6.15,6.15,0,0,0,3.49-6.87l-2.46-11.47a6.2,6.2,0,0,0-6-4.89l-14.8-.21a6.2,6.2,0,0,1-5.55-3.57c-1-2.23-2.16-4.42-3.37-6.56a6.1,6.1,0,0,1,.36-6.55l8.55-12a6.14,6.14,0,0,0-.45-7.69l-7.91-8.72a6.25,6.25,0,0,0-7.66-1.26l-12.87,7.13a6.24,6.24,0,0,1-6.61-.34c-2-1.41-4.1-2.75-6.24-4a6.13,6.13,0,0,1-3-5.86l1.37-14.58a6.15,6.15,0,0,0-4.27-6.43l-11.24-3.64a6.24,6.24,0,0,0-7.27,2.7l-7.55,12.58a6.2,6.2,0,0,1-5.88,3c-2.5-.25-5-.38-7.5-.42a6.18,6.18,0,0,1-5.5-3.59L701,535.44A6.24,6.24,0,0,0,694.1,532l-11.57,2.41a6.17,6.17,0,0,0-4.92,6L677.42,555a6.13,6.13,0,0,1-3.57,5.49c-2.28,1-4.5,2.15-6.68,3.36a6.23,6.23,0,0,1-6.59-.38L648.52,555a6.26,6.26,0,0,0-7.75.43l-8.8,7.83a6.12,6.12,0,0,0-1.26,7.59l7.21,12.77a6.09,6.09,0,0,1-.34,6.55q-2.13,3-4,6.18a6.22,6.22,0,0,1-5.91,3l-14.71-1.38a6.22,6.22,0,0,0-6.49,4.22l-3.66,11.14a6.16,6.16,0,0,0,2.73,7.21L618.2,628a6.12,6.12,0,0,1,3,5.83c-.25,2.49-.38,5-.42,7.43a6.09,6.09,0,0,1-3.61,5.45l-13.41,6.1a6.14,6.14,0,0,0-3.49,6.87l2.46,11.47a6.2,6.2,0,0,0,6,4.88l14.78.21a6.19,6.19,0,0,1,5.55,3.54c1,2.26,2.17,4.46,3.4,6.63a6.07,6.07,0,0,1-.38,6.52l-8.55,12a6.12,6.12,0,0,0,.45,7.68l7.91,8.72a6.25,6.25,0,0,0,7.66,1.26l12.87-7.13a6.24,6.24,0,0,1,6.61.34c2,1.42,4.1,2.75,6.24,4a6.13,6.13,0,0,1,3,5.86l-1.37,14.58a6.18,6.18,0,0,0,4.27,6.44l11.24,3.64a6.24,6.24,0,0,0,7.27-2.71L697.26,735a6.19,6.19,0,0,1,5.88-3c2.5.24,5,.38,7.5.41a6.19,6.19,0,0,1,5.5,3.59l6.16,13.3a6.25,6.25,0,0,0,6.94,3.46l11.57-2.42a6.17,6.17,0,0,0,4.93-5.94l.19-14.66a6.12,6.12,0,0,1,3.6-5.5c2.25-1,4.46-2.13,6.61-3.33a6.26,6.26,0,0,1,6.62.36l12.07,8.49a6.25,6.25,0,0,0,7.74-.44l8.8-7.83a6.12,6.12,0,0,0,1.26-7.59l-7.21-12.77a6.08,6.08,0,0,1,.34-6.54q2.13-3,4-6.19a6.22,6.22,0,0,1,5.91-3l14.71,1.37a6.21,6.21,0,0,0,6.49-4.22l3.66-11.14A6.13,6.13,0,0,0,817.84,664.25ZM708.76,692.62c-28-1.63-49.4-25.44-47.79-53.19s25.61-48.93,53.62-47.3,49.39,25.43,47.78,53.18S736.76,694.24,708.76,692.62Z" transform="translate(-366.41 -335)"/><path d="M727.93,755.11a8.38,8.38,0,0,1-7.62-4.88l-6.17-13.29a4,4,0,0,0-3.53-2.32c-2.53,0-5.11-.17-7.68-.42a4,4,0,0,0-3.78,1.92L691.6,748.7a8.4,8.4,0,0,1-9.83,3.66l-11.25-3.64a8.32,8.32,0,0,1-5.78-8.73l1.37-14.58a4,4,0,0,0-1.93-3.76c-2.2-1.29-4.35-2.67-6.4-4.11a4,4,0,0,0-4.27-.21l-12.87,7.13a8.42,8.42,0,0,1-10.36-1.71L622.37,714a8.27,8.27,0,0,1-.61-10.44l8.55-12a3.9,3.9,0,0,0,.25-4.16c-1.25-2.22-2.43-4.5-3.48-6.78a4,4,0,0,0-3.58-2.27l-14.78-.2a8.38,8.38,0,0,1-8.13-6.63l-2.45-11.47a8.29,8.29,0,0,1,4.73-9.34l13.4-6.09a3.92,3.92,0,0,0,2.33-3.47c0-2.5.18-5.06.42-7.62a3.89,3.89,0,0,0-1.94-3.72l-12.7-7.49a8.31,8.31,0,0,1-3.7-9.79l3.66-11.15a8.35,8.35,0,0,1,8.78-5.72l14.71,1.37a4,4,0,0,0,3.82-1.91c1.28-2.15,2.67-4.28,4.14-6.33a3.9,3.9,0,0,0,.21-4.19l-7.21-12.76a8.28,8.28,0,0,1,1.72-10.32l8.79-7.83a8.42,8.42,0,0,1,10.49-.59l12.06,8.48a4,4,0,0,0,4.24.26c2.22-1.23,4.52-2.39,6.84-3.45a3.89,3.89,0,0,0,2.28-3.51l.19-14.65a8.33,8.33,0,0,1,6.68-8.07l11.57-2.42a8.4,8.4,0,0,1,9.39,4.69l6.16,13.29a4,4,0,0,0,3.54,2.32c2.55,0,5.14.18,7.68.43a4,4,0,0,0,3.77-1.93l7.55-12.57a8.4,8.4,0,0,1,9.84-3.67L752.82,536a8.32,8.32,0,0,1,5.78,8.74l-1.37,14.58a4,4,0,0,0,1.93,3.75c2.19,1.28,4.34,2.66,6.39,4.11a4.06,4.06,0,0,0,4.28.22l12.88-7.14A8.41,8.41,0,0,1,793.06,562l7.91,8.73a8.27,8.27,0,0,1,.61,10.44l-8.55,12a3.92,3.92,0,0,0-.23,4.19c1.24,2.18,2.4,4.44,3.45,6.71a4,4,0,0,0,3.59,2.3l14.78.21a8.38,8.38,0,0,1,8.13,6.62l2.45,11.48a8.29,8.29,0,0,1-4.72,9.33L807.07,640a3.92,3.92,0,0,0-2.33,3.48c0,2.52-.18,5.09-.42,7.62a3.93,3.93,0,0,0,1.94,3.72l12.7,7.49a8.29,8.29,0,0,1,3.7,9.79L819,683.28a8.36,8.36,0,0,1-8.78,5.73l-14.71-1.38a4,4,0,0,0-3.82,1.91c-1.3,2.19-2.7,4.32-4.14,6.34a3.9,3.9,0,0,0-.21,4.18l7.21,12.77a8.27,8.27,0,0,1-1.72,10.32L784,731a8.42,8.42,0,0,1-10.48.6l-12.07-8.49a4.06,4.06,0,0,0-4.28-.23c-2.21,1.22-4.49,2.37-6.77,3.41a3.93,3.93,0,0,0-2.31,3.52l-.19,14.66a8.3,8.3,0,0,1-6.68,8.06l-11.57,2.42A8.17,8.17,0,0,1,727.93,755.11Zm-25.37-25.33a7,7,0,0,1,.79,0c2.45.23,4.91.37,7.32.4a8.43,8.43,0,0,1,7.47,4.87l6.16,13.29a4,4,0,0,0,4.49,2.23l11.57-2.42a3.93,3.93,0,0,0,3.17-3.81l.2-14.66a8.37,8.37,0,0,1,4.89-7.48c2.17-1,4.34-2.07,6.46-3.25a8.49,8.49,0,0,1,8.94.49L776.09,728a4,4,0,0,0,5-.29l8.79-7.83a3.88,3.88,0,0,0,.82-4.85l-7.22-12.77a8.34,8.34,0,0,1,.47-8.92c1.37-1.91,2.7-3.94,3.94-6a8.47,8.47,0,0,1,8-4l14.71,1.38a3.93,3.93,0,0,0,4.19-2.72l3.66-11.14a3.92,3.92,0,0,0-1.76-4.62L804,658.65a8.37,8.37,0,0,1-4.09-7.94c.24-2.41.38-4.85.41-7.25a8.36,8.36,0,0,1,4.9-7.43l13.41-6.09a3.91,3.91,0,0,0,2.24-4.4l-2.45-11.47a4,4,0,0,0-3.88-3.15l-14.78-.2a8.45,8.45,0,0,1-7.53-4.86c-1-2.16-2.1-4.31-3.28-6.39a8.33,8.33,0,0,1,.48-8.92l8.55-12a3.88,3.88,0,0,0-.29-4.91L789.8,565a4.07,4.07,0,0,0-5-.81L772,571.27a8.46,8.46,0,0,1-8.94-.47c-2-1.37-4-2.69-6.09-3.91a8.36,8.36,0,0,1-4.08-8l1.37-14.59a4,4,0,0,0-2.75-4.13l-11.25-3.64a4,4,0,0,0-4.7,1.74L728,550.89a8.4,8.4,0,0,1-8,4c-2.42-.24-4.88-.37-7.32-.41a8.42,8.42,0,0,1-7.47-4.86L699,536.36a4,4,0,0,0-4.49-2.23L683,536.55a4,4,0,0,0-3.17,3.82L679.62,555a8.34,8.34,0,0,1-4.87,7.47c-2.21,1-4.41,2.11-6.51,3.28a8.48,8.48,0,0,1-8.92-.51l-12.07-8.48a4.06,4.06,0,0,0-5,.28l-8.79,7.83a3.9,3.9,0,0,0-.81,4.86l7.21,12.77a8.33,8.33,0,0,1-.47,8.91c-1.39,2-2.72,4-3.93,6a8.49,8.49,0,0,1-8,4l-14.71-1.37a4,4,0,0,0-4.19,2.71L604.86,614a3.92,3.92,0,0,0,1.77,4.62l12.69,7.5a8.32,8.32,0,0,1,4.09,7.94c-.24,2.43-.37,4.87-.4,7.24a8.36,8.36,0,0,1-4.91,7.43l-13.41,6.09a3.92,3.92,0,0,0-2.24,4.41l2.45,11.47a4,4,0,0,0,3.88,3.14l14.79.21a8.39,8.39,0,0,1,7.51,4.82c1,2.17,2.12,4.35,3.31,6.46a8.28,8.28,0,0,1-.5,8.89l-8.55,11.95a3.91,3.91,0,0,0,.29,4.92l7.91,8.72a4.08,4.08,0,0,0,5,.82l12.88-7.14a8.5,8.5,0,0,1,8.94.47c1.94,1.37,4,2.68,6.09,3.91a8.38,8.38,0,0,1,4.09,8l-1.37,14.58a3.93,3.93,0,0,0,2.75,4.13l11.24,3.64a4,4,0,0,0,4.7-1.74l7.55-12.58A8.42,8.42,0,0,1,702.56,729.78Zm9.24-34.87c-1.06,0-2.11,0-3.17-.1-29.17-1.69-51.54-26.59-49.86-55.51a52,52,0,0,1,17.65-36.19,53.33,53.33,0,0,1,74.8,4.34,52.21,52.21,0,0,1-4.3,74.18A52.83,52.83,0,0,1,711.8,694.91Zm-.25-100.67a48.41,48.41,0,0,0-32.21,12.18,47.53,47.53,0,0,0-16.17,33.14c-1.54,26.49,19,49.31,45.71,50.86A48.48,48.48,0,0,0,744,678.33a47.81,47.81,0,0,0,4-67.93,48.51,48.51,0,0,0-33.49-16.07Q713,594.24,711.55,594.24Z" transform="translate(-366.41 -335)"/><path d="M1225.58,415.68a2.2,2.2,0,0,1-1-4.17l15.28-7.65a2.2,2.2,0,1,1,2,3.94l-15.28,7.65A2.14,2.14,0,0,1,1225.58,415.68Z" transform="translate(-366.41 -335)"/><path d="M1190,433.49a2.2,2.2,0,0,1-1-4.17l15.28-7.65a2.2,2.2,0,0,1,2,3.94L1191,433.26A2.17,2.17,0,0,1,1190,433.49Z" transform="translate(-366.41 -335)"/><path d="M1210.34,410.61a2.21,2.21,0,0,1-2-1.22l-7.65-15.28a2.2,2.2,0,1,1,3.94-2l7.65,15.28a2.2,2.2,0,0,1-1,2.95A2.15,2.15,0,0,1,1210.34,410.61Z" transform="translate(-366.41 -335)"/><path d="M1228.15,446.2a2.21,2.21,0,0,1-2-1.22l-7.65-15.28a2.21,2.21,0,0,1,4-2l7.64,15.28a2.21,2.21,0,0,1-1,3A2.35,2.35,0,0,1,1228.15,446.2Z" transform="translate(-366.41 -335)"/><path d="M1482.77,1566.14l-358.87,2.25c-2.32,0-3.08,2.17-3.08,4.24V1878c0,29.23-203.9,105.18-205.89,101.32l-.25,32.31c0,6,5.28,11.36,12,11.36h305.46a105.17,105.17,0,0,0,40.39-8.42L1438,1944.86c29.79-12.54,48.57-39.47,48.57-68.85V1570.38C1486.55,1568.3,1485.09,1566.14,1482.77,1566.14Z" transform="translate(-366.41 -335)"/><path class="cls-2" d="M1084.47,1550.61V1856c0,30.1-19.37,57.53-49.81,70.52l-111.6,47.64c-7.29,3.11-4.8,12.88,3.28,12.88H1233a102.94,102.94,0,0,0,39.87-8L1396.48,1927c30.67-12.91,50.23-40.45,50.23-70.7V1550.61a2.4,2.4,0,0,0-2.53-2.26H1087A2.41,2.41,0,0,0,1084.47,1550.61Z" transform="translate(-366.41 -335)"/><path d="M1233,1989.24H926.34c-5.62,0-8.88-3.69-9.63-7.34-.84-4.08,1.37-8,5.49-9.77l111.59-47.63c29.45-12.57,48.48-39.46,48.48-68.5V1550.61a4.62,4.62,0,0,1,4.74-4.47h357.17a4.62,4.62,0,0,1,4.74,4.47V1856.3c0,31-20.25,59.54-51.59,72.74l-123.64,52A105.83,105.83,0,0,1,1233,1989.24Zm-146.28-438.58V1856c0,30.81-20.08,59.29-51.16,72.55l-111.59,47.63c-2.24,1-3.33,2.77-2.9,4.84.38,1.9,2.18,3.81,5.31,3.81H1233a101.29,101.29,0,0,0,39-7.8L1395.63,1925c29.69-12.5,48.88-39.46,48.88-68.67V1550.61c0,.06-.12-.06-.33-.06H1087A.43.43,0,0,0,1086.68,1550.66Z" transform="translate(-366.41 -335)"/><path d="M416,1723.66l1475.58,3.21,25.62.06,47.64.1c13.54,0,24.66-10.57,26.38-24l123.38-964.19c3-23.46-14.1-45.61-37.7-45.61L548.08,694.59Z" transform="translate(-366.41 -335)"/><path class="cls-2" d="M2019.54,693c26.61,0,48.25,26.8,44.84,53.26l-124.26,956.81a26.94,26.94,0,0,1-26.69,23.53l-11.65.44-1506.25-.44a27,27,0,0,1-26.69-30.44L495.61,719.87c1.73-13.45,12.07-26.89,25.6-26.89Z" transform="translate(-366.41 -335)"/><path d="M1901.87,1729.22l-1506.34-.44a29.16,29.16,0,0,1-28.88-32.92L493.42,719.59c1.82-14.16,12.72-28.81,27.79-28.81H2019.54c12.71,0,25.25,6,34.4,16.36,9.66,11,14.39,25.72,12.63,39.38L1942.3,1703.33a29.2,29.2,0,0,1-28.87,25.45ZM521.21,695.19c-12.48,0-21.88,12.95-23.42,25L371,1696.42a24.75,24.75,0,0,0,24.51,27.95l1506.25.45,11.56-.45a24.81,24.81,0,0,0,24.59-21.61L2062.2,746c1.6-12.43-2.73-25.85-11.57-35.91-8.31-9.45-19.64-14.86-31.09-14.86Z" transform="translate(-366.41 -335)"/><path class="cls-2" d="M1951.53,742.08c24.35,0,44.14,23.94,41,47.58l-113.69,854.57a24.45,24.45,0,0,1-24.42,21l-10.65.39-1378-.39c-14.85,0-26.32-12.77-24.42-27.18l116-872c1.58-12,11-24,23.43-24Z" transform="translate(-366.41 -335)"/><path d="M1843.88,1667.84l-1378.11-.39a27,27,0,0,1-20.34-9.16,25.93,25.93,0,0,1-6.26-20.51l116-872c1.68-12.74,11.72-25.93,25.62-25.93H1951.53c11.9,0,23.57,5.53,32,15.16,8.72,10,12.8,22.67,11.19,34.9l-113.69,854.58a26.71,26.71,0,0,1-26.6,22.93ZM580.76,744.29c-11.33,0-19.85,11.47-21.25,22.1l-116,872a21.59,21.59,0,0,0,5.21,17,22.59,22.59,0,0,0,17,7.66l1378,.39,10.57-.39a22.33,22.33,0,0,0,22.32-19.11l113.68-854.58c1.45-11-2.25-22.42-10.13-31.42-7.61-8.68-18.07-13.65-28.71-13.65Z" transform="translate(-366.41 -335)"/><path class="cls-1" d="M1671.25,1568l-917.19-16.18a5,5,0,0,1-5.1-5.69l102.6-950a8.35,8.35,0,0,1,8.11-7.06l917.18,16.18a5,5,0,0,1,5.11,5.7l-102.6,950A8.36,8.36,0,0,1,1671.25,1568Z" transform="translate(-366.41 -335)"/><path d="M1607.75,1164.55h0l-688.4-12.14a2.17,2.17,0,0,1-1.61-.75,2.21,2.21,0,0,1-.54-1.69l3.2-29.59a2.1,2.1,0,0,1,2.23-2L1611,1130.56a2.21,2.21,0,0,1,2.15,2.44l-3.19,29.58A2.21,2.21,0,0,1,1607.75,1164.55Zm-685.95-16.5,684,12.06,2.72-25.19-684-12.07Z" transform="translate(-366.41 -335)"/><path d="M1421.65,1219.63h0l-508.6-9a2.2,2.2,0,0,1-2.15-2.43l3.2-29.59a2.17,2.17,0,0,1,2.23-2l508.59,9a2.25,2.25,0,0,1,1.61.75,2.18,2.18,0,0,1,.54,1.69l-3.2,29.59A2.2,2.2,0,0,1,1421.65,1219.63Zm-506.14-13.34,504.17,8.9,2.72-25.19-504.17-8.9Z" transform="translate(-366.41 -335)"/><path d="M1590.72,1322.14h0L902.29,1310a2.2,2.2,0,0,1-2.15-2.44l3.2-29.59a2.15,2.15,0,0,1,2.23-2L1594,1288.15a2.21,2.21,0,0,1,2.15,2.44l-3.2,29.59A2.19,2.19,0,0,1,1590.72,1322.14Zm-685.94-16.5,684,12.06,2.72-25.19-684-12.06Z" transform="translate(-366.41 -335)"/><path d="M1404.64,1377.22h0l-508.6-9a2.21,2.21,0,0,1-2.15-2.44l3.2-29.59a2.21,2.21,0,0,1,2.22-2l508.6,9a2.2,2.2,0,0,1,2.15,2.44l-3.2,29.58A2.2,2.2,0,0,1,1404.64,1377.22Zm-506.15-13.33,504.17,8.89,2.72-25.19-504.17-8.89Z" transform="translate(-366.41 -335)"/><path d="M1571.34,1460.22h0l-688.4-12.14a2.21,2.21,0,0,1-2.15-2.44l3.2-29.59a2.13,2.13,0,0,1,2.23-2l688.39,12.14a2.21,2.21,0,0,1,2.15,2.44l-3.2,29.59A2.19,2.19,0,0,1,1571.34,1460.22Zm-685.95-16.5,684,12.06,2.72-25.19-684-12.06Z" transform="translate(-366.41 -335)"/><path d="M1385.24,1515.3h0l-508.59-9a2.21,2.21,0,0,1-2.15-2.44l3.2-29.59a2.18,2.18,0,0,1,2.22-2l508.6,9a2.2,2.2,0,0,1,2.15,2.44l-3.2,29.58A2.2,2.2,0,0,1,1385.24,1515.3ZM879.1,1502l504.17,8.89,2.72-25.19-504.17-8.89Z" transform="translate(-366.41 -335)"/><path class="cls-2" d="M1434.44,858.1H1091.61l34.25,151.42c2.47,11,13,18.72,25.36,18.72h214.4c12.37,0,23.31-7.76,26.38-18.72Z" transform="translate(-366.41 -335)"/><path d="M1365.62,1030.45h-214.4c-13.48,0-24.79-8.41-27.51-20.45l-34.24-151.42a2.18,2.18,0,0,1,2.14-2.68h342.83a2.19,2.19,0,0,1,2.12,2.79l-42.44,151.42C1390.76,1022.08,1379,1030.45,1365.62,1030.45ZM1094.37,860.3,1128,1009c2.26,10,11.81,17,23.21,17h214.4c11.46,0,21.43-7,24.26-17.12l41.66-148.62Z" transform="translate(-366.41 -335)"/><path class="cls-2" d="M1435.92,847.7H1090.69a12.56,12.56,0,0,1-12.62-13,13.41,13.41,0,0,1,13.33-13h345.23a12.56,12.56,0,0,1,12.62,13A13.41,13.41,0,0,1,1435.92,847.7Z" transform="translate(-366.41 -335)"/><path d="M1435.92,849.9H1090.69a14.76,14.76,0,0,1-14.82-15.23,15.63,15.63,0,0,1,15.53-15.11h345.23a14.76,14.76,0,0,1,14.82,15.23A15.64,15.64,0,0,1,1435.92,849.9ZM1091.4,824a11.22,11.22,0,0,0-11.13,10.83,10.35,10.35,0,0,0,10.42,10.71h345.23A11.2,11.2,0,0,0,1447,834.67,10.34,10.34,0,0,0,1436.63,824Z" transform="translate(-366.41 -335)"/><path class="cls-2" d="M1200.42,884.94h-35.16c-6.58,0-11.62,5.41-10.35,11.1l22.14,99.21c.93,4.15,5,7.1,9.8,7.1h10c5.67,0,10.39-4.07,10.54-9.1l3-99.21C1210.56,889,1206.09,884.94,1200.42,884.94Z" transform="translate(-366.41 -335)"/><path d="M1196.84,1004.55h-10c-5.87,0-10.78-3.63-11.94-8.82l-22.14-99.21a10.61,10.61,0,0,1,2.18-9,13.26,13.26,0,0,1,10.32-4.8h35.16a12.78,12.78,0,0,1,9.17,3.73,10.46,10.46,0,0,1,3,7.64l-3,99.21C1209.39,999.51,1203.68,1004.55,1196.84,1004.55Zm-31.58-117.41a8.83,8.83,0,0,0-6.88,3.15,6.16,6.16,0,0,0-1.32,5.27l22.14,99.21c.7,3.12,3.91,5.38,7.64,5.38h10c4.48,0,8.22-3.13,8.34-7l3-99.2a6.07,6.07,0,0,0-1.78-4.44,8.39,8.39,0,0,0-6-2.4Z" transform="translate(-366.41 -335)"/><path class="cls-2" d="M1373.41,896c1.62-5.69-3.11-11.1-9.71-11.1h-35.28c-5.69,0-10.42,4.08-10.58,9.1l-3,99.21c-.15,5,4.34,9.1,10,9.1h10c4.82,0,9.08-3,10.26-7.1Z" transform="translate(-366.41 -335)"/><path d="M1334.85,1004.55h-10a12.82,12.82,0,0,1-9.2-3.74,10.5,10.5,0,0,1-3-7.63l3-99.2c.19-6.2,5.92-11.24,12.78-11.24h35.28a12.61,12.61,0,0,1,10.1,4.79,10.33,10.33,0,0,1,1.72,9.12l-28.29,99.2C1345.77,1001,1340.68,1004.55,1334.85,1004.55Zm-6.43-117.41c-4.5,0-8.26,3.13-8.37,7l-3,99.21a6.07,6.07,0,0,0,1.77,4.42,8.41,8.41,0,0,0,6,2.41h10c3.81,0,7.24-2.32,8.15-5.51l28.29-99.2a5.88,5.88,0,0,0-1-5.25,8.16,8.16,0,0,0-6.58-3.05Z" transform="translate(-366.41 -335)"/><path class="cls-2" d="M1278.26,884.94h-27c-4,0-7.42,4.08-7.53,9.1l-2.17,99.21c-.1,5,3.09,9.1,7.14,9.1h27c4,0,7.42-4.07,7.53-9.1L1285.4,894C1285.5,889,1282.31,884.94,1278.26,884.94Z" transform="translate(-366.41 -335)"/><path d="M1275.7,1004.55h-27a8.55,8.55,0,0,1-6.13-2.67,12.05,12.05,0,0,1-3.21-8.68l2.17-99.2c.13-6.21,4.5-11.26,9.73-11.26h27a8.58,8.58,0,0,1,6.13,2.67,12.05,12.05,0,0,1,3.21,8.68l-2.17,99.21C1285.3,999.5,1280.93,1004.55,1275.7,1004.55Zm-24.4-117.41c-2.81,0-5.25,3.19-5.33,7l-2.16,99.21a7.6,7.6,0,0,0,2,5.5,4.17,4.17,0,0,0,3,1.35h27c2.81,0,5.25-3.18,5.33-6.95l2.16-99.2a7.62,7.62,0,0,0-2-5.51,4.21,4.21,0,0,0-3-1.35Z" transform="translate(-366.41 -335)"/><ellipse cx="1122.61" cy="832.32" rx="19.12" ry="18.61" transform="translate(-627.51 693.19) rotate(-44.61)"/><path class="cls-2" d="M1122.41,839.87a7.3,7.3,0,0,1-5.12-2.06,7.53,7.53,0,0,1,0-10.66L1249.13,691a7.45,7.45,0,1,1,10.71,10.34L1128,837.49A7.71,7.71,0,0,1,1122.41,839.87Z" transform="translate(-366.41 -335)"/><path d="M1122.4,842.07a9.51,9.51,0,0,1-9.54-9.38,9.87,9.87,0,0,1,2.82-7.07l131.87-136.18a9.77,9.77,0,0,1,13.79-.38,9.5,9.5,0,0,1,2.89,6.71,9.84,9.84,0,0,1-2.81,7.07L1129.55,839A10,10,0,0,1,1122.4,842.07ZM1254.69,690.8a5.52,5.52,0,0,0-4,1.7L1118.84,828.68a5.46,5.46,0,0,0-1.57,3.93,5.09,5.09,0,0,0,1.55,3.62,5.48,5.48,0,0,0,7.56-.27l131.88-136.18a5.47,5.47,0,0,0,1.57-3.93,5.09,5.09,0,0,0-5.14-5.05Z" transform="translate(-366.41 -335)"/><ellipse cx="1404.84" cy="832.32" rx="19.12" ry="18.61" transform="translate(-546.18 891.47) rotate(-44.61)"/><path class="cls-2" d="M1404.64,839.87a7.68,7.68,0,0,0,5.22-2.06,7.56,7.56,0,0,0,.61-10.66L1286,691a7.65,7.65,0,0,0-11.27,10.34l124.51,136.18A7.3,7.3,0,0,0,1404.64,839.87Z" transform="translate(-366.41 -335)"/><path d="M1404.64,842.07a9.6,9.6,0,0,1-7.06-3.09l-124.5-136.19a9.77,9.77,0,0,1,.75-13.77,9.91,9.91,0,0,1,7.14-2.62,9.5,9.5,0,0,1,6.63,3.08l124.5,136.18a9.78,9.78,0,0,1-.75,13.78A9.94,9.94,0,0,1,1404.64,842.07ZM1280.54,690.8a5.5,5.5,0,0,0-3.74,1.47,5.37,5.37,0,0,0-.47,7.55L1400.83,836a5.45,5.45,0,0,0,7.54.18,5.36,5.36,0,0,0,.48-7.55L1284.34,692.45a5.08,5.08,0,0,0-3.56-1.65Z" transform="translate(-366.41 -335)"/><circle cx="1115.27" cy="698.07" r="50.52" transform="translate(-548.66 144.93) rotate(-22.5)"/><path class="cls-2" d="M1109.89,728.37a5.1,5.1,0,0,1-4.69-2.33l-18.54-25.74a5.66,5.66,0,0,1,9.6-5.91l13.76,18,21.37-37.33a5.92,5.92,0,0,1,7.52-2.51,4.93,4.93,0,0,1,2,7.05l-26.18,45.74a6.07,6.07,0,0,1-4.8,3Z" transform="translate(-366.41 -335)"/><path class="cls-2" d="M2144.1,1632.72,1839.31,1686,1537,1633a.39.39,0,0,1,0-.76l305.8-53.55Z" transform="translate(-366.41 -335)"/><path d="M1839.31,1688.2a2.43,2.43,0,0,1-.38,0l-302.34-53a2.59,2.59,0,0,1,0-5.1l305.81-53.55a2.22,2.22,0,0,1,.77,0l301.33,54a2.2,2.2,0,0,1,0,4.34l-304.78,53.28A2.43,2.43,0,0,1,1839.31,1688.2Zm-291.76-55.55,291.76,51.11,292.15-51.07L1842.76,1581Z" transform="translate(-366.41 -335)"/><polygon points="1472.95 1802.58 1472.95 1350.56 1169.63 1297.46 1169.63 1748.58 1472.95 1802.58"/><polygon class="cls-2" points="1358.22 1370.44 1358.22 1329.5 1290.93 1320.09 1290.93 1360.81 1358.22 1370.44"/><path d="M1724.63,1707.65l-.31,0L1657,1698a2.2,2.2,0,0,1-1.89-2.18v-40.72a2.21,2.21,0,0,1,2.51-2.18l67.29,9.41a2.2,2.2,0,0,1,1.9,2.18v40.94a2.21,2.21,0,0,1-2.21,2.21Zm-65.09-13.75,62.89,9v-36.48l-62.89-8.8Z" transform="translate(-366.41 -335)"/><polygon class="cls-2" points="1472.95 1802.58 1472.95 1350.56 1778.94 1297.53 1778.94 1748.31 1472.95 1802.58"/><path d="M1839.37,2139.78a2.23,2.23,0,0,1-1.42-.51,2.2,2.2,0,0,1-.78-1.69v-452a2.2,2.2,0,0,1,1.82-2.17l306-53a2.22,2.22,0,0,1,1.8.49,2.17,2.17,0,0,1,.78,1.68v450.78a2.19,2.19,0,0,1-1.82,2.17l-306,54.27A2.43,2.43,0,0,1,1839.37,2139.78Zm2.2-452.37V2135l301.58-53.48V1635.15Z" transform="translate(-366.41 -335)"/><path class="cls-2" d="M2098.8,1258.74,1851.47,1302l-245-42.92a.38.38,0,0,1,0-.75l247.77-43.39Z" transform="translate(-366.41 -335)"/><path d="M1851.47,1304.18a2.34,2.34,0,0,1-.38,0l-245-42.92a2.58,2.58,0,0,1,0-5.09l247.77-43.39a2.21,2.21,0,0,1,.77,0l244.53,43.81a2.2,2.2,0,0,1,0,4.34l-247.34,43.24A2.31,2.31,0,0,1,1851.47,1304.18Zm-234.36-45.49,234.36,41,234.7-41-231.9-41.55Z" transform="translate(-366.41 -335)"/><polygon class="cls-2" points="1485.1 1333.44 1485.1 966.62 1733.41 923.59 1733.41 1289.4 1485.1 1333.44"/><path d="M1851.51,1670.64a2.2,2.2,0,0,1-2.2-2.2V1301.62a2.2,2.2,0,0,1,1.83-2.17l248.3-43a2.19,2.19,0,0,1,2.58,2.17V1624.4a2.2,2.2,0,0,1-1.82,2.17l-248.3,44A2.56,2.56,0,0,1,1851.51,1670.64Zm2.21-367.17v362.34l243.9-43.26V1261.21Z" transform="translate(-366.41 -335)"/><polygon points="1485.1 1333.44 1485.1 966.62 1238.95 923.53 1238.95 1289.61 1485.1 1333.44"/><polygon class="cls-2" points="1395.57 991.8 1395.57 950.85 1341.27 941.44 1341.27 982.17 1395.57 991.8"/><path d="M1762,1329l-.38,0-54.31-9.64a2.18,2.18,0,0,1-1.81-2.16v-40.73a2.17,2.17,0,0,1,.78-1.68,2.22,2.22,0,0,1,1.8-.49l54.3,9.41a2.21,2.21,0,0,1,1.83,2.17v41a2.2,2.2,0,0,1-2.21,2.2Zm-52.1-13.68,49.9,8.85v-36.46l-49.9-8.65Z" transform="translate(-366.41 -335)"/><polygon class="cls-2" points="1579.67 896.91 1338.13 940.51 1392.36 949.99 1634.03 906.29 1579.67 896.91"/><path d="M1758.77,1287.19a2.43,2.43,0,0,1-.38,0l-54.23-9.48a2.2,2.2,0,0,1,0-4.34l241.54-43.59a2,2,0,0,1,.77,0l54.36,9.37a2.2,2.2,0,0,1,0,4.34l-241.68,43.7Zm-41.64-11.72,41.63,7.28,229-41.41-41.7-7.19Z" transform="translate(-366.41 -335)"/><polygon class="cls-2" points="1450.78 1255.56 1450.78 1057.31 1270.51 1025.55 1270.51 1223.06 1450.78 1255.56"/><path d="M1817.2,1592.76l-.4,0-180.27-32.5a2.22,2.22,0,0,1-1.81-2.17V1360.55a2.21,2.21,0,0,1,.79-1.69,2.17,2.17,0,0,1,1.8-.48l180.27,31.76a2.2,2.2,0,0,1,1.82,2.17v198.25a2.2,2.2,0,0,1-2.2,2.2Zm-178.07-36.54,175.86,31.7V1394.15l-175.86-31Z" transform="translate(-366.41 -335)"/><polygon points="1292.43 1173.06 1292.43 1203.55 1428.86 1226.95 1428.86 1197.12 1292.43 1173.06"/><polygon points="1422.28 1106.28 1394.12 1065.54 1366.11 1096.33 1380.49 1098.86 1380.49 1171.13 1407.74 1175.8 1407.74 1103.67 1422.28 1106.28"/><polygon points="1355.18 1094.9 1327.02 1054.16 1299.01 1084.95 1313.4 1087.49 1313.4 1159.75 1340.64 1164.42 1340.64 1092.29 1355.18 1094.9"/><path class="cls-2" d="M1319.08,1854l186.42,32.59,184.33-32.3a.34.34,0,0,0,0-.67L1503.38,1821Z" transform="translate(-366.41 -335)"/><polygon points="1139.05 1827.8 1139.05 1551.33 951.9 1518.89 951.9 1794.61 1139.05 1827.8"/><polygon class="cls-2" points="1139.05 1827.8 1139.05 1551.33 1324.57 1518.85 1324.57 1794.77 1139.05 1827.8"/><path d="M1505.46,2165a2.2,2.2,0,0,1-2.2-2.2V1886.33a2.2,2.2,0,0,1,1.82-2.17l185.53-32.48a2.23,2.23,0,0,1,1.79.49,2.19,2.19,0,0,1,.79,1.68v275.92a2.22,2.22,0,0,1-1.82,2.17l-185.52,33A2.56,2.56,0,0,1,1505.46,2165Zm2.21-276.82v272l181.11-32.25V1856.47Z" transform="translate(-366.41 -335)"/><polygon class="cls-2" points="1076.54 1497.81 1260.68 1530.2 1210.27 1539.68 1026.14 1507.29 1076.54 1497.81"/><path d="M1576.69,1876.89a1.58,1.58,0,0,1-.38,0l-184.14-32.39a2.2,2.2,0,0,1,0-4.33l50.4-9.48a2.27,2.27,0,0,1,.78,0L1627.47,1863a2.2,2.2,0,0,1,0,4.34l-50.41,9.48A2.71,2.71,0,0,1,1576.69,1876.89Zm-171.84-34.67,171.82,30.23,38.12-7.17L1443,1835.05Z" transform="translate(-366.41 -335)"/><path d="M1505.5,1888.8a2.34,2.34,0,0,1-.38,0l-186.42-32.59a2.2,2.2,0,0,1,0-4.34l184.3-33a2.22,2.22,0,0,1,.77,0l186.45,32.65a2.54,2.54,0,0,1,0,5l-184.34,32.3ZM1331.72,1854l173.78,30.38L1679,1854l-175.6-30.75Zm357.73,1.82h0Z" transform="translate(-366.41 -335)"/><path d="M1505.46,2165a2.2,2.2,0,0,1-2.2-2.2V1886.33a2.2,2.2,0,0,1,1.82-2.17l185.53-32.48a2.23,2.23,0,0,1,1.79.49,2.19,2.19,0,0,1,.79,1.68v275.92a2.22,2.22,0,0,1-1.82,2.17l-185.52,33A2.56,2.56,0,0,1,1505.46,2165Zm2.21-276.82v272l181.11-32.25V1856.47Z" transform="translate(-366.41 -335)"/><path d="M1505.46,2165a2.43,2.43,0,0,1-.38,0l-187.15-33.2a2.19,2.19,0,0,1-1.82-2.16V1853.89a2.22,2.22,0,0,1,2.58-2.17l187.15,32.44a2.2,2.2,0,0,1,1.83,2.17V2162.8a2.2,2.2,0,0,1-2.21,2.2Zm-184.94-37.24,182.74,32.41v-272l-182.74-31.67Z" transform="translate(-366.41 -335)"/><path class="cls-2" d="M1564.13,782l166.15,29.05,164.3-28.79a.3.3,0,0,0,0-.6l-166.18-29.1Z" transform="translate(-366.41 -335)"/><polygon points="1363.84 722.25 1363.84 475.83 1197.04 446.93 1197.04 692.67 1363.84 722.25"/><polygon class="cls-2" points="1363.84 722.25 1363.84 475.83 1529.2 446.89 1529.2 692.81 1363.84 722.25"/><polygon points="1308.12 428.14 1472.25 457.01 1427.32 465.46 1263.2 436.59 1308.12 428.14"/><path d="M1730.28,813.28a2.31,2.31,0,0,1-.37,0l-166.16-29a2.2,2.2,0,0,1,0-4.34L1728,750.43a2.21,2.21,0,0,1,.77,0L1895,779.52a2.51,2.51,0,0,1,0,4.94l-164.3,28.79A2.34,2.34,0,0,1,1730.28,813.28ZM1576.77,782l153.51,26.84L1883.53,782,1728.4,754.83Zm317.43,1.86Zm0-3.74h0Z" transform="translate(-366.41 -335)"/><path d="M1730.25,1059.46a2.22,2.22,0,0,1-2.2-2.2V810.84a2.2,2.2,0,0,1,1.82-2.17l165.36-28.95a2.24,2.24,0,0,1,1.8.48,2.2,2.2,0,0,1,.78,1.69v245.92A2.2,2.2,0,0,1,1896,1030l-165.36,29.44A1.72,1.72,0,0,1,1730.25,1059.46Zm2.21-246.77v241.94l161-28.66V784.51Z" transform="translate(-366.41 -335)"/><path d="M1730.25,1059.46a1.69,1.69,0,0,1-.38,0l-166.81-29.58a2.2,2.2,0,0,1-1.81-2.17V781.93a2.19,2.19,0,0,1,2.57-2.17l166.81,28.91a2.19,2.19,0,0,1,1.83,2.17v246.42a2.22,2.22,0,0,1-2.21,2.2Zm-164.6-33.64,162.4,28.81V812.69l-162.4-28.15Z" transform="translate(-366.41 -335)"/><path d="M2016.46,521.32C1962.46,399.73,1829.4,322,1683,336.81S1421.9,454.66,1393.45,584.67l.23-.13c29.86-34.8,70.45-30.94,111.14-11.63l1,.26c37.69-43.75,88.49-35.14,123.31-12.66l.46.11,4.27,1.72c50.64-31.44,94.38-42.83,146.75-17,31.21-25.61,76.56-39.86,123.29-12.59l.27.06.62-.31c25.86-25.53,71.34-32.19,110.88-11.35Z" transform="translate(-366.41 -335)"/><path class="cls-1" d="M1663.83,342.68c-103.38,31.41-138,117.91-157.6,228.22,34.76-33.25,76-41.49,127.53-9.77C1627,473.28,1645.36,402.65,1663.83,342.68Z" transform="translate(-366.41 -335)"/><path d="M1506.23,573.1a2.26,2.26,0,0,1-1-.26,2.2,2.2,0,0,1-1.13-2.33c17.71-99.7,49.25-196.56,159.13-229.94a2.2,2.2,0,0,1,2.75,2.75C1647.86,402,1629.14,472.1,1636,561a2.21,2.21,0,0,1-3.35,2c-47-29-87.89-25.89-124.86,9.48A2.21,2.21,0,0,1,1506.23,573.1ZM1660.5,346c-102.11,33.07-133.47,124-150.94,218.83,36.36-31.87,76.27-34.41,121.7-7.8C1625.42,471.43,1643,403.36,1660.5,346Z" transform="translate(-366.41 -335)"/><path class="cls-1" d="M1708.18,338.25c120.35,15.25,164.92,93.92,193.3,193.09-32-17.85-75.2-10.84-120.87,14C1765.74,461.41,1744,391.48,1708.18,338.25Z" transform="translate(-366.41 -335)"/><path class="cls-1" d="M1780.61,547.5a2.28,2.28,0,0,1-1-.21,2.2,2.2,0,0,1-1.21-1.61c-16.29-91.85-39.19-157.37-72.09-206.2a2.2,2.2,0,0,1,2.11-3.41c127.14,16.1,168.92,103.08,195.14,194.66a2.2,2.2,0,0,1-3.19,2.53c-30-16.74-71.09-11.9-118.75,14A2.3,2.3,0,0,1,1780.61,547.5ZM1712.7,341.09c31.46,48.36,53.63,112.42,69.54,200.84C1827.81,517.8,1867.63,512.7,1898,527,1872.39,439.89,1831.35,358.12,1712.7,341.09Z" transform="translate(-366.41 -335)"/><path d="M1724.59,786.51a2.19,2.19,0,0,1-1.15-.33L1395.61,584a2.2,2.2,0,0,1,2.32-3.75l326.39,201.31,286-266.48a2.2,2.2,0,0,1,3,3.22L1726.1,785.92A2.21,2.21,0,0,1,1724.59,786.51Z" transform="translate(-366.41 -335)"/><path d="M1724.59,786.51a2.22,2.22,0,0,1-1.55-.64L1505.15,569.28a2.2,2.2,0,1,1,3.1-3.12l210.39,209.13-88.35-222.46a2.2,2.2,0,0,1,4.09-1.63l92.26,232.29a2.21,2.21,0,0,1-.83,2.66A2.25,2.25,0,0,1,1724.59,786.51Z" transform="translate(-366.41 -335)"/><path d="M1724.59,786.51a2.16,2.16,0,0,1-.89-.19,2.21,2.21,0,0,1-1.25-2.52l56-239a2.2,2.2,0,0,1,4.29,1l-53.4,227.86,176-251.7a2.2,2.2,0,1,1,3.61,2.53L1726.4,785.57A2.21,2.21,0,0,1,1724.59,786.51Z" transform="translate(-366.41 -335)"/><polygon class="cls-2" points="187.25 1679.78 192.37 1728.85 225.33 1732.74 225.33 1674.56 187.25 1679.78"/><path d="M591.74,2069.94h-.26l-33-3.89a2.21,2.21,0,0,1-1.93-2L551.47,2015a2.21,2.21,0,0,1,1.89-2.41l38.08-5.22a2.19,2.19,0,0,1,2.5,2.18v58.18a2.18,2.18,0,0,1-.74,1.64A2.13,2.13,0,0,1,591.74,2069.94Zm-31-8.07,28.75,3.39v-53.18l-33.46,4.6Z" transform="translate(-366.41 -335)"/><path class="cls-2" d="M596.93,2153.16a229.28,229.28,0,0,1-62.72,0,14.82,14.82,0,0,1-12.3-18.21c5.82-23.82,15.85-69,33.07-90l4.28,11.36,5.91-10.69a5.2,5.2,0,0,1,3.91-2.67l12.94-1.65a5.25,5.25,0,0,1,5.78,4.14l2.05,9.86,7.89-12.92,3.51,48.25a199.83,199.83,0,0,0,4.64,30.69l3.53,15.22A14.79,14.79,0,0,1,596.93,2153.16Z" transform="translate(-366.41 -335)"/><path d="M565.77,2157.5a231,231,0,0,1-31.87-2.19,17,17,0,0,1-14.13-20.91l1.25-5.15c5.94-24.61,15.89-65.78,32.26-85.68a2.17,2.17,0,0,1,2.06-.78,2.2,2.2,0,0,1,1.7,1.4l2.6,6.89,3.6-6.52a7.45,7.45,0,0,1,5.56-3.78l12.94-1.65A7.49,7.49,0,0,1,590,2045l.92,4.41,5-8.17a2.21,2.21,0,0,1,4.08,1l3.5,48.25a198.37,198.37,0,0,0,4.6,30.36l3.52,15.21a17.06,17.06,0,0,1-14.32,19.29A226.86,226.86,0,0,1,565.77,2157.5Zm31.16-4.34h0Zm-42.61-103.7c-14.35,20.13-23.46,57.83-29,80.82l-1.25,5.17a12.61,12.61,0,0,0,10.46,15.49,225.75,225.75,0,0,0,62.11,0,12.6,12.6,0,0,0,10.61-14.13l-3.49-15a204.27,204.27,0,0,1-4.69-31l-3-41.4-4.31,7.06a2.2,2.2,0,0,1-4-.7l-2.06-9.86a3,3,0,0,0-3.34-2.4l-12.94,1.65a3,3,0,0,0-2.27,1.55l-5.9,10.69a2.23,2.23,0,0,1-2.09,1.13,2.19,2.19,0,0,1-1.9-1.42Z" transform="translate(-366.41 -335)"/><path d="M566.79,2142.93a129.1,129.1,0,0,1-28.85-3.36,2.21,2.21,0,0,1,1-4.3c32.05,7.36,53.78-.23,54-.3a2.2,2.2,0,0,1,1.49,4.14C593.8,2139.33,583.58,2142.93,566.79,2142.93Z" transform="translate(-366.41 -335)"/><path d="M550.88,2105.23a2.2,2.2,0,0,1-.07-4.4l30.89-1a2.14,2.14,0,0,1,2.28,2.13,2.2,2.2,0,0,1-2.13,2.28l-30.89,1Z" transform="translate(-366.41 -335)"/><polygon class="cls-2" points="341.63 1653.66 346.57 1725.26 386.23 1725.26 388.07 1653.66 341.63 1653.66"/><path d="M752.64,2062.46H713a2.2,2.2,0,0,1-2.2-2.05l-4.94-71.6a2.19,2.19,0,0,1,2.2-2.35h46.44a2.19,2.19,0,0,1,2.2,2.25l-1.84,71.61A2.2,2.2,0,0,1,752.64,2062.46Zm-37.6-4.4h35.45l1.73-67.2H710.4Z" transform="translate(-366.41 -335)"/><path class="cls-2" d="M702.62,2100.68a14.4,14.4,0,0,0,11,14.26c22.8,5.34,74.16,17.23,88.81,19.43,19,2.85,42.39-3,52.43-14.21s-22.49-37.93-37.94-47.65c-22.94-14.45-45-43-54.23-44.29s-26.5,25.71-26.5,25.71L708,2042S703.12,2066.33,702.62,2100.68Z" transform="translate(-366.41 -335)"/><path d="M812.42,2137.29a69.62,69.62,0,0,1-10.26-.74c-14.84-2.23-67.18-14.36-89-19.47a16.68,16.68,0,0,1-12.75-16.43c.5-34.16,5.41-58.84,5.46-59.08a2.23,2.23,0,0,1,1.13-1.52,2.27,2.27,0,0,1,1.89-.08l26.5,11.21c4.57-6.91,18.38-26.42,27.64-25.14,5.34.74,12.86,7.92,23.27,17.87,9.65,9.21,20.58,19.65,31.83,26.74,12.44,7.83,38.77,28.57,40.74,42.71a9.79,9.79,0,0,1-2.33,8.27C848,2131.15,830,2137.29,812.42,2137.29Zm-107.6-36.58a12.25,12.25,0,0,0,9.35,12.08c21.77,5.1,74,17.2,88.64,19.4,19,2.84,41.12-3.09,50.46-13.5a5.52,5.52,0,0,0,1.25-4.72c-1.52-10.89-23.47-30-38.72-39.6-11.63-7.32-22.74-17.93-32.53-27.28-8.69-8.3-16.9-16.14-20.83-16.69-5.41-.72-17.49,14-24.34,24.71a2.19,2.19,0,0,1-2.71.84l-25.68-10.85A371.76,371.76,0,0,0,704.82,2100.71Z" transform="translate(-366.41 -335)"/><path d="M812.13,2119.74c-34.56,0-79.21-15.81-95.49-22a2.21,2.21,0,0,1,1.58-4.12c15.4,5.91,93.72,34.41,123.08,15.18a2.2,2.2,0,0,1,2.41,3.68C835.68,2117.69,824.56,2119.74,812.13,2119.74Z" transform="translate(-366.41 -335)"/><path d="M768.08,2080.78a2.2,2.2,0,0,1-1.54-3.78L783,2060.91a2.2,2.2,0,0,1,3.08,3.15l-16.43,16.09A2.21,2.21,0,0,1,768.08,2080.78Z" transform="translate(-366.41 -335)"/><path class="cls-2" d="M542.42,1521.87S530.13,1745.71,523.7,1823s15,201.48,15,201.48l61.21-3.24s4.2-151,8.75-193c0,0,25.85-56.85,33.52-107.56S676,1589.9,676,1589.9s21.2,399.76,23.24,431.17c0,0,48,2.15,65.22-8.75,0,0,30.49-145.77,26.11-225.07s.43-276.35.43-276.35Z" transform="translate(-366.41 -335)"/><path d="M538.73,2026.66a2.19,2.19,0,0,1-2.16-1.83c-.22-1.24-21.45-125.37-15.07-202,6.36-76.36,18.59-298.81,18.72-301a2.2,2.2,0,0,1,2.1-2.08l248.58-11a2.09,2.09,0,0,1,1.64.63,2.26,2.26,0,0,1,.66,1.63c-.05,2-4.76,197.85-.44,276.17,4.35,78.68-25.85,224.18-26.16,225.64a2.21,2.21,0,0,1-1,1.41c-17.6,11.14-64.51,9.17-66.5,9.08a2.2,2.2,0,0,1-2.1-2c-1.82-28-19-351.89-22.6-419.07-7.45,24-24.21,80.33-30,118.89-7.32,48.44-31.43,103.07-33.55,107.81-4.47,41.85-8.65,190.94-8.69,192.44a2.21,2.21,0,0,1-2.09,2.14l-61.22,3.24ZM544.51,1524c-1.24,22.45-12.58,226.64-18.62,299.18-5.9,70.88,12,182.95,14.69,199l57.23-3c.52-18.17,4.48-152.21,8.7-191.1a2.2,2.2,0,0,1,.18-.68c.26-.57,25.82-57.17,33.35-107,7.6-50.3,33.59-130.35,33.85-131.15a2.21,2.21,0,0,1,4.3.57c.21,3.92,20.48,386.15,23.12,429.14,9,.24,46.13.69,61.17-8,2.59-12.64,30-148.75,25.89-223.56-4.08-73.81-.15-251.58.37-274.16Z" transform="translate(-366.41 -335)"/><path d="M597.42,1830.45H578.71a2.2,2.2,0,0,1,0-4.4h18.71a2.2,2.2,0,1,1,0,4.4Z" transform="translate(-366.41 -335)"/><path d="M730.72,1946.71h0a2.19,2.19,0,0,1-2.16-2.24c.67-37,41-103.35,42.72-106.16a2.21,2.21,0,0,1,3.76,2.31c-.41.67-41.43,68.1-42.08,103.93A2.2,2.2,0,0,1,730.72,1946.71Z" transform="translate(-366.41 -335)"/><path class="cls-2" d="M828.73,1167.76c3.39-.26,31.6,48.17,44.87,71.3a13.36,13.36,0,0,0,18.62,4.74l103.73-64a68.37,68.37,0,0,0,21.21-20.57c8.66-13.2,13.82-26.62,25.41-36,9.43-7.62,19-16.1,21.84-18.32,1.79-1.38,10.12,4.54,3.85,15-1.93,3.23-9.13,9.78-11.09,12.76a13.35,13.35,0,0,0,.35,15.54c3.72,4.78,6.82,12.45,2.65,23.12C1054,1187.12,1040,1191,1032,1191.94a16.09,16.09,0,0,0-10.29,5.43L926,1307.06a46.17,46.17,0,0,1-58.91,9.11c-31.13-19-71.2-57.33-100.06-105.75Z" transform="translate(-366.41 -335)"/><path d="M891.17,1325.16A48.16,48.16,0,0,1,866,1318c-28.38-17.32-69.75-54.4-100.8-106.49a2.2,2.2,0,0,1,.64-2.94L827.48,1166a2.16,2.16,0,0,1,1.08-.38c2.08-.14,5.21-.37,47,72.39a11.16,11.16,0,0,0,15.55,4l103.73-64a66.45,66.45,0,0,0,20.53-19.9c2.5-3.81,4.73-7.69,6.89-11.44,5.38-9.35,10.46-18.17,19-25.06,5.44-4.4,10.83-9,15.15-12.7,3.06-2.61,5.48-4.68,6.73-5.65,1.55-1.21,4-.75,6.13,1.16,3.3,2.93,5.54,9.07,1,16.76-1.16,1.94-3.78,4.71-6.32,7.38a57.85,57.85,0,0,0-4.83,5.46,11.12,11.12,0,0,0,.26,13c3.9,5,7.58,13.47,3,25.27-6.61,16.88-21.58,21-29.92,22a13.93,13.93,0,0,0-8.88,4.68L927.68,1308.5A48.35,48.35,0,0,1,891.17,1325.16ZM770,1211.06c30.51,50.47,70.65,86.37,98.25,103.22a43.91,43.91,0,0,0,56.11-8.67l95.73-109.69a18.28,18.28,0,0,1,11.7-6.16c7.35-.85,20.55-4.48,26.33-19.22,3.1-7.92,2.31-15-2.34-21a15.52,15.52,0,0,1-.45-18.11,57.8,57.8,0,0,1,5.3-6.06,53.56,53.56,0,0,0,5.74-6.61c2.67-4.48,2.17-7.57,1.28-9.38a5.21,5.21,0,0,0-2.32-2.45c-1.27,1-3.45,2.88-6.13,5.17-4.12,3.52-9.75,8.33-15.24,12.78-7.88,6.37-12.76,14.85-17.93,23.82-2.19,3.81-4.46,7.74-7,11.67a70.8,70.8,0,0,1-21.9,21.23l-103.73,64a15.57,15.57,0,0,1-21.68-5.52c-26.3-45.86-39.21-65.8-42.94-69.73Zm58-41.26Z" transform="translate(-366.41 -335)"/><path class="cls-3" d="M472.7,1257.84s-6.9-127.51,89.5-163.33c74.65-27.74,170-15.78,199.85-5.41,73.55,25.51,109.76,122.7,109.76,122.7l-86.2,12.14s26,279.23,14.71,341.51c0,0-69.38,8.15-98.8-3.52s-126.17-28-172.41-6.62l8.4-298.66Z" transform="translate(-366.41 -335)"/><path class="cls-2" d="M592.85,1496a2.2,2.2,0,0,1-.38-4.37C702.57,1472,734.72,1395.3,735,1394.52a2.21,2.21,0,0,1,4.09,1.65c-.32.79-33.26,79.72-145.88,99.76Z" transform="translate(-366.41 -335)"/><polygon class="cls-2" points="432.12 1025.56 290.89 1025.56 335.13 866.77 476.36 866.77 432.12 1025.56"/><path d="M798.53,1362.76H657.3a2.18,2.18,0,0,1-1.75-.87,2.2,2.2,0,0,1-.37-1.92l44.24-158.8a2.2,2.2,0,0,1,2.12-1.61H842.77a2.21,2.21,0,0,1,2.12,2.8l-44.24,158.79A2.18,2.18,0,0,1,798.53,1362.76Zm-138.33-4.4H796.86l43-154.39H703.21Z" transform="translate(-366.41 -335)"/><path class="cls-2" d="M489.44,1258l62.11-2.82s.47,52.65,6.07,53.59c20,3.35,61.77,3.51,89,.21a21.94,21.94,0,0,0,18.77-17.89,31.47,31.47,0,0,1,14.9-21.53c9.41-5.82.13,12.5,8.93,24.3,4.72,6.34,19.67,3.53,40.07-1.22s25.57,17.18,2.71,30.44c-24.77,14.37-40.52,12.75-48.42,14.44-15.74,3.35-154.89,25.3-176.37,13.55C490.59,1342,489.44,1258,489.44,1258Z" transform="translate(-366.41 -335)"/><path d="M534.18,1356.69c-13.08,0-23.19-1.07-28-3.73-17.23-9.42-18.77-86.24-18.89-95a2.2,2.2,0,0,1,2.1-2.23l62.11-2.82a2.08,2.08,0,0,1,1.61.6,2.16,2.16,0,0,1,.69,1.58c.2,22.36,2,48.07,4.6,51.49,20.26,3.33,61.21,3.39,88,.14a19.67,19.67,0,0,0,16.86-16.11,33.88,33.88,0,0,1,15.91-23c1.54-1,3.81-2.1,5.79-1,2.32,1.31,2.3,4.38,2.26,8.62,0,5.07-.09,12,3.8,17.23s19.47,2.22,37.81-2.06c11.16-2.61,17.38,2.12,19.48,7.42,2.84,7.15-.69,18.68-15.16,27.07-19.89,11.54-33.89,13-43.15,13.91-2.33.24-4.35.45-5.92.78C676.15,1341.31,583.86,1356.69,534.18,1356.69Zm-42.5-96.62c.5,24.43,4.25,82.29,16.56,89,20.58,11.25,158.83-10.36,174.86-13.78a64.25,64.25,0,0,1,6.39-.85c8.89-.91,22.32-2.28,41.39-13.34,12.21-7.08,15.44-16.18,13.28-21.64-1.81-4.58-7.34-6.39-14.39-4.75-21.27,5-36.76,7.89-42.34.4-4.78-6.42-4.71-14.53-4.67-19.89a32.26,32.26,0,0,0-.15-4.49,8.6,8.6,0,0,0-1.18.63,29.21,29.21,0,0,0-13.9,20.07,24.08,24.08,0,0,1-20.66,19.67c-27.27,3.31-69.15,3.2-89.61-.23-1.82-.3-7.27-1.22-7.89-53.45Z" transform="translate(-366.41 -335)"/><path class="cls-2" d="M703.31,1091.37s-16.08-9.9-15.92-15.68L682.8,1046a6.27,6.27,0,0,1,4.16-6l19-6.53a5.81,5.81,0,0,0,3.83-5.85l-1.49-23.6,7.46-6.6a1.46,1.46,0,0,0,.16-2L704.15,981c-3.85-5.42-7.71-18.39-10.86-17.51,0,0-67.09-7.75-70.36,26.08a20.54,20.54,0,0,0,3.84,13.8l5.94,8.37a42.91,42.91,0,0,1,8,29c-.22,2.14-3,15.93-4.87,25a22,22,0,0,1-8.11,13c-5.24,4-11.62,9.17-10.58,9.51a99.72,99.72,0,0,0,19.16,10.29,70.71,70.71,0,0,0,63.76-5.3Z" transform="translate(-366.41 -335)"/><path d="M662.83,1106a71.73,71.73,0,0,1-27.31-5.37,100.89,100.89,0,0,1-19.62-10.56,2.46,2.46,0,0,1-1-1.51c-.26-1.5-.41-2.33,11.52-11.52a19.76,19.76,0,0,0,7.29-11.68c4-19.54,4.75-23.94,4.84-24.83a40.64,40.64,0,0,0-7.66-27.53l-5.94-8.38a22.68,22.68,0,0,1-4.23-15.28,24.61,24.61,0,0,1,9.45-17.26c18.69-15.1,58.55-11.31,63-10.83,3.46-.5,5.76,4.41,8.62,10.55a56.87,56.87,0,0,0,4.14,7.91L717.63,994a3.65,3.65,0,0,1-.4,5.06l-6.65,5.89,1.42,22.52a8.06,8.06,0,0,1-5.29,8.07l-19,6.53a4.06,4.06,0,0,0-2.67,3.8l4.56,29.53a2.8,2.8,0,0,1,0,.4c-.08,2.7,7.63,9.29,14.88,13.74a2.21,2.21,0,0,1,0,3.76l-3.19,1.94A73.9,73.9,0,0,1,662.83,1106Zm-42.53-18.26a104.14,104.14,0,0,0,16.9,8.81,68.72,68.72,0,0,0,61.78-5.14l.19-.11c-5.33-3.58-13.88-10.15-14-15.46l-4.56-29.53c0-.1,0-.2,0-.3a8.48,8.48,0,0,1,5.63-8.17l19-6.53a3.61,3.61,0,0,0,2.34-3.63l-1.49-23.6a2.21,2.21,0,0,1,.74-1.79l6.92-6.12L702.45,982.4a57,57,0,0,1-4.63-8.72c-1.25-2.67-3.29-7.06-4.41-8a1.53,1.53,0,0,1-.37,0c-.42,0-42.14-4.66-60.08,9.85a20.05,20.05,0,0,0-7.84,14.26,18.36,18.36,0,0,0,3.44,12.3l6,8.38A45,45,0,0,1,643,1041c-.18,1.72-1.83,10.22-4.91,25.26a24.16,24.16,0,0,1-8.91,14.29C624.07,1084.45,621.55,1086.6,620.3,1087.76Z" transform="translate(-366.41 -335)"/><path d="M695.52,912c-15.29-.79,4,15-52.59-1.31-22.56-6.48-11,20-16.82,18.31-21.63-6.15-20.89-6-31.4-3.1-7,1.9-11.4,14.92-10,24.62,1.83,12.8,16.18,33.11,29,54.59,6.66,11.12,18.44,12.12,32.7-4.43,1.51-1.76-6.24-12.13-2.19-16.61,10.52-11.63,15.19,5.94,23.68.52,8.16-5.21,11.53-8.58,20.14-16.45,10.43-9.53,27.94,5.3,34-16.14C725.19,940.83,716.45,913.08,695.52,912Z" transform="translate(-366.41 -335)"/><path d="M673.18,1020.78c-10.47,0-20.29-5.5-25-14.66L642.89,996a2.2,2.2,0,0,1,3.91-2l5.25,10.1c5,9.6,16.66,14.4,27.75,11.42l9.51-2.85a2.22,2.22,0,0,1,2.74,1.48,2.19,2.19,0,0,1-1.48,2.74l-9.56,2.87A30.2,30.2,0,0,1,673.18,1020.78Z" transform="translate(-366.41 -335)"/><path class="cls-2" d="M639.71,971.15a2.2,2.2,0,0,1-2.17-1.85c-.16-1-3.84-25,9.62-40.54,7.38-8.51,18.47-12.73,32.82-12.42a2.2,2.2,0,0,1,0,4.4h0c-13.07-.27-22.92,3.43-29.4,10.89-12.11,13.91-8.65,36.74-8.61,37a2.2,2.2,0,0,1-1.83,2.52A2.07,2.07,0,0,1,639.71,971.15Z" transform="translate(-366.41 -335)"/><path class="cls-2" d="M670.76,984.85a17.72,17.72,0,0,0-15.42-20.17c-1.08-.13-5.09-.22-6.15-.16-8.57.54-13,7.25-14.2,16.13-1.3,9.59,2.64,18.54,11.88,20.24.39.07,3.12.27,3.52.28C661.21,1001.2,669.4,994.83,670.76,984.85Z" transform="translate(-366.41 -335)"/><path d="M650.47,1003.37h-.08c-.47,0-3.35-.21-3.92-.31-9.78-1.81-15.27-10.93-13.66-22.7,1.49-10.91,7.41-17.48,16.24-18,1.22-.07,5.38,0,6.55.16A19.71,19.71,0,0,1,668.94,970a20.1,20.1,0,0,1,4,15.14C671.45,996.05,662.43,1003.37,650.47,1003.37Zm-.18-36.67-1,0c-8.51.53-11.31,8-12.15,14.23-1.06,7.73,1.65,16.22,10.09,17.78.37,0,2.75.23,3.14.23h.08c9.79,0,16.89-5.65,18.08-14.41a15.67,15.67,0,0,0-3.12-11.84,15.22,15.22,0,0,0-10.36-5.84C654.36,966.78,651.81,966.7,650.29,966.7Zm20.47,18.15h0Z" transform="translate(-366.41 -335)"/><path class="cls-2" d="M660,984.52a17.77,17.77,0,0,0-15.84-19.88,18.48,18.48,0,0,0-20,16.34A17.77,17.77,0,0,0,640,1000.86,18.48,18.48,0,0,0,660,984.52Z" transform="translate(-366.41 -335)"/><path d="M641.8,1003.15a19.08,19.08,0,0,1-2-.1,19.68,19.68,0,0,1-13.49-7.28,20.07,20.07,0,0,1-4.32-15,20.69,20.69,0,0,1,22.41-18.28,19.64,19.64,0,0,1,13.49,7.28,20.07,20.07,0,0,1,4.32,15A20.74,20.74,0,0,1,641.8,1003.15Zm.63-36.4a16.33,16.33,0,0,0-16,14.48A15.67,15.67,0,0,0,629.75,993a15.28,15.28,0,0,0,10.49,5.67,16.29,16.29,0,0,0,17.61-14.4,15.79,15.79,0,0,0-3.37-11.78,15.32,15.32,0,0,0-10.5-5.66C643.46,966.78,642.94,966.75,642.43,966.75ZM660,984.52h0Z" transform="translate(-366.41 -335)"/><ellipse cx="320.46" cy="680.14" rx="10.54" ry="10.6"/></g></svg>