<svg id="Layer_2" data-name="Layer 2" xmlns="http://www.w3.org/2000/svg" width="361" height="361" viewBox="0 0 361 361"><defs><style>.cls-1{fill:#fff;}</style></defs><path class="cls-1" d="M466,437.82a183.64,183.64,0,0,0,5.07-94.44c-12.57-61.58-73.6-124-134.94-137.72C218.8,179.41,114.8,267.54,114,380.21c-.7,99.86,80.8,181.88,180.66,181.79a180.88,180.88,0,0,0,41.12-4.74,178.88,178.88,0,0,0,21-6.29.17.17,0,0,0,.06-.27l-33.27-33.17-72.45-72.25a.17.17,0,0,1,.12-.28h101.9l59.22,53.05,10.46,10.17a.17.17,0,0,0,.24,0c1.39-1.41,2.75-2.84,4.1-4.3a.17.17,0,0,0,0-.23l-3.39-3.4L359.57,436.1a.17.17,0,0,1-.05-.12q.06-50,.13-100a.16.16,0,0,1,.28-.11l105.84,102A.16.16,0,0,0,466,437.82Zm-118.19-4.73H255.44a12.78,12.78,0,0,1-12.78-12.78V341.68a15.83,15.83,0,0,1,15.83-15.83h76.58a12.78,12.78,0,0,1,12.78,12.78Z" transform="translate(-114 -201)"/></svg>